<mxfile host="app.diagrams.net" modified="2023-12-09T02:46:32.330Z" agent="Mozilla/5.0 (Windows NT 10.0; Win64; x64) AppleWebKit/537.36 (KHTML, like Gecko) Chrome/120.0.0.0 Safari/537.36" etag="87AfljhreHo8AYWzuhXX" version="22.1.7" type="github">
  <diagram name="Page-1" id="pCE8biMNLgLo1MvyvopH">
    <mxGraphModel dx="2100" dy="1158" grid="1" gridSize="10" guides="1" tooltips="1" connect="1" arrows="1" fold="1" page="1" pageScale="1" pageWidth="850" pageHeight="1100" math="0" shadow="0">
      <root>
        <mxCell id="0" />
        <mxCell id="1" parent="0" />
        <mxCell id="FLnOvjkGC3l7UgWu9o7t-1" value="" style="shape=image;verticalLabelPosition=bottom;labelBackgroundColor=default;verticalAlign=top;aspect=fixed;imageAspect=0;image=data:image/png,iVBORw0KGgoAAAANSUhEUgAABC0AAAHMCAYAAADxrFKLAAAAAXNSR0IArs4c6QAAAARnQU1BAACxjwv8YQUAAAAJcEhZcwAAEnQAABJ0Ad5mH3gAACnCSURBVHhe7d15fF1lnT/w7y1FyjISFheWAg1LsS5jg8YFlwomgAVfVqmKa3QGhzIImRnQX/Q3M46jdrT8tKBSFEeqgz/FgvUnLdAGFMVRiVqWkWJZAmWnCoatlLZpfvece25yb5qmSQvt0/J+l2/vWZ5zzpPb/HM/PM9zS/955R/6AgAAACAxpW8vEloAAAAA6SlduHip0AIAAABIzpjiFQAAACApRloAAACw1TzW80jctvTmePQvfymOpGX3PfaIQye9NJ7fsGe+v631t/Tn++PqOefE/bfcnO+nZt+XvDSOnnFG9O29b3GkntACAACAreZXVy2OE0+YEocd2lgcScutt3XHJZddE69/a2u+v63198enfTj+/syPxetfNznfT82vfn19fP3sb8Y7vvad4ki90nc6bxFaAAAAsFX8dOFP4jP/a0bc++cniyNp2X/vXeMz/zEnjpr69nx/W+vvd0+aGj+++gex8o835fup2eXwV8Q7jn5vfOj7C4sj9fI1LQ7c8aFnpAAAAGA0SqVS9PVFrEu0sr5lfaza1vqb6etdF+t6e/PqW1dT2X5Rted6167tr3VFZcf771FT1fPr1g5cV7n3ukoV98zb127317qil0PLR1pkgcPyNS8qDg2oBhEvuPd9+WtmbW/5HShbvWZdrFnbF6tWr4sxr7gkPzbUPQAAAGBDrrn8svjnT5wS9/z5ieJIWsbvvVv8+5fOjylvOyHfH21/f3bFwvif3/222Bu9l7/q1fGW46YWexs3uL/ZSItLr/hurLzlxnx/PdV8o/JRPxYuezCuvK1+UMJbDtwjjn/JPrHj2LGVQKTa9tZy21sHtT1ojzjh8H3ztsMpbhG7vuSv413HfWiDIy2EFgAAAGw111yxIP73WX8Xdyc63eKAvXeNz836Rkw57vh8f7T9/dq//2v88Ptzir3Re/dJM+K0f/63Ym/jBvc3Cy0uWXBhPLn0+ny/Py0o6ytFlGr3+/qiffEt6/U368NrXrRLvHPSfrHTjmOzoRxx+W0rYnH3n4ds+8nmfeNFDbvHmHK7ujEftTvFc3d96eQ48fiPbHh6SJ6SlGWvg6vWS469MK+XH/v1vJqO+2K85rhPxuNP9hYthr6HUkoppZRSSik1XGWyz7Bp1ub1N5OFAZtambW9a4e891CVGdzXfPrG6jV59a4dqHWrs+kcxf6ayutQsmDiuodWxqU33xNPrFwZC/74wJCBRdWjjz8ea9esLj+3/IyiKs8oP69c64pnZZX1LVPb59rK17TYmGxURfQ+GX1P3x99q+7KK55aFvHkLfH4ysoDhnPTVw6PD731pFh0X3FgPb+IC99abvOVXxT7G1e557/Gpiwlkl87xLPy42d8NwavzlHbfnOeW/XQj04a1c8KAACwfcs+XKda68vCgfJH6hH9ydsPEUaMtDJrnl5dc8fh/2Qhy1B6e9fmtS4LDfI1KNZGX28lNKhsV143JAsoulasivm33B9XLf/LBgOLTL6uRR5ODDyrUtUAo3I+q43pDy0OGPvgelX11Kp10bfqzoiVt0Xfk7dU6oml0bfylnjyqY0/pOL66LpuebFd76EfzYl7Xzq6r195xT/8Mb571b/FK4r90XjFke+JWHj1oOBheTxwV/nl5ivihrpwpXL8LUe+Kd/bnOcCAADw3LNu3br+eu/7/36jVds+k4UNW8ob99k1n+IxlCyo+P3DazYYWGTXvez5EeN23DEfJfFM6A8txp16bF5xytviqY9NjUf+trJoR+axbDTFk3+MvidvHggtnro1+lbeGU89XR2AMrxDXzo5bjvv20OMUFgeN/y8mFuzpex3cBwat8YDteHEfT+Prpsnl/t5fdw/xPF99yv2AQAAYBQGj5xoeee74tjp7x6yMoPbbylZ0HBc457RvPfzhg0uhlINLJpfMC722m3XDYz3GL3SRT9d1rf/mAcqgUXZqnVj4ql1pXKNiT2/dVnl2O/fGS3HvSv6Vq+IvjUP58dibfl1zaPx9XmPxCvfdWV+6N51++Svg9345Ynx4wMviNdcc3Lc/4Fl8dHXFCcy1/1LfOCig+OsKVfErOWnxkX/WBnREPd9J/7tg1+I2yp7ES/9VPyfr344qkt9Vu65OP71XQeW95bHlR9vLd97cex7UWtcdHPWYnJ84L9+EMcOGTZU2l83pXp9xEOXvjf+qfz8s+LkmBUXDPSj6F/12Zvy3OyaWQuKnfLPsd7PWpY//+s14c3xA33Ir6/tU/wivn3UyREzB97Lav9r7wkAAJC6n12+IE7+yHvihtsHRvsP54+//WXcc+vSYm/0xh82KQ5/9RuKvY175SEvjgsuvDje8rbKwpaj7W/n974Z/zV3drEX8cG29njVse+IncbtXByp998//v567Y98x0mxy65/VRwZ3uD+Xvju4+K8L5wWd1787Xx/Y7KYZM26dfGr5+0ft+1+0LDTQKqywGL8I91x6GN3xQvH7Ri7jd0hRjrQYsJ7Phqnfupr8ZEfXlEcqde/EOfja8fkdcTZ34sjTv98PFrernp8ZW/0PVn+pVh5a5RWdecVTz8QsW5l9BbfJpKpLpSxXuVnD4qmKZPjpxd9N1bUnLvpvy+OQ6e8JSpxx8DxFb+5I1570a3xvZ9l1RkfjC/EP3352v7zlXsOtM/2f9rxySh1VK75xPHXx0X/Uf+sgar05bbld/cfe2j59XHogQfFK9/wnog77+q/LutfTGiMFxf7o33uTVngcOen48v5z1GuD94Rs/JwYuAeK/LA4rD4RLVN9vPeeXJ8oPh5B/ep1HVV/DR77n8PvB9Z/496w5v795VSSimllFJqW6jRygKL7IP0ptamBh6b2t/M4OkeWWCRhRBDVWZw+02xqf3NrthxzJh47dP3xsGP3ZkHEn/60582WNn5/R/pjsZH74y9dxo7qsCiVrW/g2vMmFIlnHh03Q55PbX8rnj8phujZ+0O+fHMEyt741s/uD7Ou/jOOPcHD1fqh0+Va2XRoiK711CV9bdUft1n+mlxdLZmxP3Fufu/Gz9e8N545/QJeWeyt6d6zT7TPx9v2796jwnxtg+9t/jgXjlWvWe1fbZ/2Gln918z+aT/HYfdfEc8VNOmtvY5YGLEgqvipnz/2vj9gqZ43esnxJjXttb0MTsecfQbp/RfN7rnVu77oU99JPapXvPaz8cn88Cr+rNeGwu/XooPfe/zMbnaJvt5P1W+T7V/4w8t33PgfbvplxfH0aeVz/e/H5Xn7D++er1SSimllFJKbRu1KdauXbvJlVnXO/AtmCO1Of19/PHH+2skRtt+KJvT3+xz7v/sdkDc8fwJ8dXZn6kLUQZXdv7ePRtj+R6NMXZM+crs4k1Q7e/6lYcFEY+u3SGvx266KR77n5vi8d6B0GLCMQvi8BMuj1dMuzKapi/K64h3Z7U4f62qTUPqKz9Z/m9KvPqEJfGb31RGOKz4zeVx6wkt5Q/r2Qf4rE39PVZc+u44acohlfrkD/J75N/zmlf1ngP7BxxwUM1+1uDWePD+2jY19dqWeGv8IH7fVd7uuiquftnUOGL/7NyE2P9lS+L++8rb998V98RJ8erXFtfkNYrn5tdPjH3z+w7UvhOaBn7W7NlDtCntPyEOqN5n/6PiddU+lX4ev19Q7tP08vmbL48bsvN1/VdKKaWUUkqpbac2RU9PzyZXZs2ap/PX0dic/tZ+yB+J0bYfyub093c7j48bdjkgzvnyv9T1ZUOVtburYUL8dtz4fGrJpqzEUe3v4MqCi1w1tLj4ssvi0jvviUd7BxKZxX85qL8uXzE+rx/fs29+7qEdxuevmexeQ1b2PmUf0svbk9//zxFfvSBuHLM8lvws4sPvn5Ifz9OYok1pzDXxrTcfHGf8bGqcc+0dcXFWs07KHhHZ0qGD75lfn6nZ7z9Ws19fU+LVb4+4+97l8dC9yyIaD4oX58cPjKajmuKqX14TD/1mYdz6skNin9rrRvPc+26PW8ubtefy87X3yLaz3UFtssrl2wN9Kj1wV9yd9ynr/5K4777yv0G5/4cd9Zai/0oppZRSSim17VQm+1yU/Q/qkVTmqaee2uTK9JU/WA9176Gq/F9uvf6OKZ8fQWV6e3v7K5OtW5GtdTFUZQa3H+q+G6rsg36mtr+ZHZ63U15jdiq/FlW7vcNO48rnx8Xvd5sQ1+8yPr4869N1/ajWGf/42SGPZ+2zNTB+vfOBsW7sjjEme1ZNVe5ffh1UVdX+Dq7yz1T+ezPUXj8wfKO+Km9Zsb//0fH6l30/fjfrgvhOHB+vqk4BqW1z3/K4O06KT53/0di3uMeKe5aVz5f/EYr9unsW+7XTNqotylcMHBtU+x7UFLf+9IJY8NMl0fKmowaOZ1NHfnJVLLhrSRx21NH9fchqVM/NpnXEsnjgvprz5XqofN/+e2ygTeU9mBj7Fe/Pvq8/Pg7rXh43/mphRNGnpjedFFdd+524vtz/Aw+YUH+9UkoppZRSSm0DNVrZQpr/9IkvbHLt8eLK/4AfrU3tb6b2w/3ZX+zYaNW231Sb0t9shMSSnfbJ+zDUiIp/POvzMb5nef461Pnsult3Gx89T6+N0X7xSbW/61eRwjRddGleR/7fS+KtP/hhnPDDi/PjmbVreuPwvQ6MvXc6MNataczrwfsfzc9Vr89Uh2+sV3XnDorjP/K+6PzJ92Pi0UfHPsXx4rN+0SbbzT7IF9fcd2F87dzsg37eoHKsv+3Afv+5vLJ7DGozqPY58viY+IfvR+cfsvUgas69rjVaonz8J01x5JH1Uz9G9dzxH43pb18Scz93YTxYPX/dp+MLP8kuGtTmvZ+OG6ptSnfH5Z/7bJTOOCWaqsfGT4gD//DZ+MK5MdCn8YfGxO4F8es/vC+aX1e9VimllFJKKaW2nRqtSc1vjCknfjAmH/22mPT6KaOug176ythhh4HlEEZqU/ubGeoD/khrUz3T/T3zkzPjgEeXxyFP3B0HPbY83x+qXWbl2t4Y7SSRan8H15hs+EjmkZ0m9Fd1v2rFg0/Ew09E3P+XiIce7s3rgXsfy89Vr89Uh6MMrlIW7pSb9R97fWu0xvti+nsPGjhW7kz5r8r2AX8Tp7eX4sL3HBQnlj+gn/i5Upz+5fdlP0V/+/p75qeKH6io7EC5Qd2xwXXA0XHky8vNXn5CvOqA2nNHxWveUT4eh8d+dcdH/9wjOn4eHy19Nj6e/RxZXdsaX28/YuBnzdssLx9bFp+vtjnyzfGrt/48Zta+P9U+1fY1639pSSx7R2sc0d9OKaWUUkoppbad6v9MtcOYEVf27Rt77PWCeMG++4+6suuy64e671CV9S3r4+D+7lD+QDiSygz14X6klRnqvhuqwf3NlHbYIcbusmteO+5cfi2qdnvszjuXz++Stx/ch090fDEOevK+eMnaP8V+ezbEUc97PA5f9UB+fHDbzJjy+7tj9qyaGrvzLv19qK2sb/k1RX8HV+nHv7m7r2FVd/SMa8wbZqr72Wtm5uWlWLVqbax5ujfWrBkYnjLrQzvXtau9BwAAAGzMwh9dEjM+9oFYevcjxZG0TDpgz5jzzYti6jtPzPdH298br706um++sdgbvRfsf0A0TWmNXXZ7fnFkeIP7+9Xjp8Q3v/KJeKCzMuS/L/u/8IVSqa8yJ6SQbf581a5xfexROVBofHpFTOp9OF60686x2/PG5sHI6t7euGbVLrF0h72LVhVZ2yPG9MS+f7Vz5X/qV++fPbav+uyBh+7T8vb42D98KT6+4JriSL3S/7vu3r7dn7q92N08j+58SLEFAAAAG7fw0nlx2qkfjlvvqyxBkJrD9ts9vnbed2Lqu6bn+5vS31VPrYyeh/9Ufn2yODJy43beNRr2ekH5tTIKYmMG9/fcqW+K/5zzL/HQz67I9yvpQa26VCH/9o+/rHw6Hl+9JvrW9eWjNnYaOzYadn5e7LLjjsXsgspVa9b2xiOrVsWT5bbZIIsxRdu9dtkpxpXbDrQs9D+qcibzorccG38z47Nx+sJfFEfqlX7y2/v6nv/kbcXu5nls10OLLQAAANi4LAQ44+8/Erc/+ERxJC2HvHi3OOfrF9aFFqPtb29vNnPh6U1aWDNbf2PH7Ns9dhhbHBne4P6ec9wb4ztzvxgrfr4o3x+JdX190ZdVeTuLFypTTsqVn603mraVFpmBIOOFbz4mPtz2yTjjimuLI/VKl/3u/prYAwAAALacLARo//hH484VK4sjaZnwwl1i9le/XRdabEv9nX3sG+J7F381Vvxicb6f5QX9Ax3K23WBQDZdpLJRvJYVXwOSXTMwtaRol71s8GYV1fgib5pv1Td74Ztb4/3v+Xi0X/nL4ki90oLfCy0AAADYOq5euDBOOPaNsd/4/YsjabnvnnvjsiuvjaOnTs33t7X+fusD74zT/uFv4pUvS3NmxA1/uC2+9pX/jL+96EfFkXqlhUseEFoAAACwVTzy5z/Hkt/8OlatWlUcScu4ceOi6bWviz33riw4ua319/4bl8SCmZ+JJx55ON9PzW577hXHd3wm9v3rpuJIvdIV1z8otAAAAACSU7ryhoeEFgAAAEBySotuXCG0AAAAAJJT6unp2aqhRfZVKAzwfjAcvx/1vB/1vB9siN+Net6Pet4PhuP3o573Y4D3guFszu/H1Tc/UmxVjCleAQAAAJIitAAAAACSJLQAAAAAkiS0AAAAAJIktAAAAACSJLQAAAAAkiS0AAAAAJIktAAAAACStNmhRWd7QzQ01Fd7Z+259ih28/3WOd3F3tbVfV5L7H5GtWf1Os/YPVrOG3k/R9seAAAA2LhnZKRF88wl0dPT01+zWyrHW2Zn+7Oj2AUAAAAYMdNDAAAAgCQ9q6HFSKaD5NM0dt+9qJZIdZbFaPpZnS5Sd03LeWECCQAAAIzcVh1p0T2nNSbPnxbXP/poPJrVJZOiY/IZ/WtgpCILH0bbz66OyfF38Y1K+0evj5nREZM3sIYGAAAAsL5nJLTo6miqWYhzYOHN4XXGuR0RM79xajQWR6LljJjZPDcWbKnP9nNPrBk9MVAnzi3O5zrjnE3pZ9sl0Xlq9YrGOPUbM6N57peSHUkCAAAAqXkWFuIc4cKbnQtjbnRFx+TawGBydHQV57eEtkuKkRD1dUlbcT7TuWCT+tk88eBiq9B4aEwqNgEAAICN28oLcbbFJUOEBuck93Uj20o/AQAAYPux9UKLgydGcyyN21KfLrGJ/exadkexVchHbEyKQ/vnmAAAAADD2XqhReOMOKstm3ZRu6Bld5x3RmLfstF4anxiU/o598QYWHezM844cW40zzxjZFNnAAAAgK07PaRldk9c0jY3TqxZK2L+xGMHFrxMRMs52ToXo+tn88xLYuKXqu1PjLl1C3MCAAAAG1Pq6enpK7a3ilKpVGxtPzrP2D2+NPH6TQoptsf3g2eO34963o963g82xO9GPe9HPe8Hw/H7Uc/7McB7wXA25/fj6psfKbYqtvJCnAAAAABDE1oAAAAASTI9JDHeD4bj96Oe96Oe94MN8btRz/tRz/vBcPx+1PN+DPBeMJzN+f3IpofUXm2kBQAAAJAkoQUAAACQjmyoRVFCCwAAACBJQgsAAAAgSVt9IU4AAACAzHXLV0ftOp5GWgAAAADJqFnSQmgBAAAApKYSWwgtAAAAgIQMzA8RWgAAAADpqJkfIrQAAAAAklGTWQgtAAAAgDQJLQAAAIAkCS0AAACAZJgeAgAAAKSpJrUQWgAAAABJEloAAAAAyagZaCG0AAAAAFIyEFuUenp6+vJjo3TmmWcWWwAAAGk6++yzi61nTkNDQ7FFCsqfaYsttgfXLV8dzxs7JrKgIo8tNie0uOCCC4o9AACAtJx88snPWmjhg3Ia/Ftsf6qhRZXpIQAAAEAyBiaHCC0AAACAlNSkFkILAAAAIBk1mYXQAgAAAEiT0AIAAABIRqlU6i+hBQAAAJAkoQUAAACQDGtaAAAAAGmqSS2EFgAAAMnrjs721mhtaIiGrFpbo72zuzi3pXVGe0NrzNlaj2e7V5NZCC0AAADS1h1zWptiepwV5/f0RE+5lpx/VsT0pmiVHLAdKpUGSmgBAACQtDtiWVdzzDy9JRqLI42NLTF7Xlt0zV8UYgu2P9VxFr49BAAAYBvQFfMXddYHFC2zo2fxjP4gIx+RkU0haW2P9tbya/ug9t1zyseL6SX5FJP2mikelSkf7eXrGxray3vFsf72Q0xHWdReTFcpnzPig2fQQGRhpAUAAEDiWmL2kpkxaf70aKquZzFnTgzOEDrbm2L+xPNj8eLZMXvx4jh/4qxoaq/ED3kA0dQRcdaSfHpJPsVk2tLoaKoGFJmuWFq+vqdndvmJ2ZSU6TF30rxYkrVfMi2WTj+lJuToio5lUyvTVeZNiqUd59bcBzaP6SEAAADbksYZMXtxFh7Mi3nTpkXM74jpTQ01a1p0xsK5zTHtmIFxF43HTIvmuQuLMKElZvf0xOyWQeeL7Yra6wdNSSk/f3HP4pjRf3nNuZapMSmWxu0GW/AsEFoAAABsKxpbomVGEWBka1pURzh03x5Ls9EPTdXpHOVq6sjGTgyECd2dlekjdec3IL/fpDhkIOOALaZUKvWX0AIAACBlne3R0Dpn/QU3D54YzdVQovGQmJSNflhSmfoxUNXREdn0kOmxbOr5/d9A0rNk5qCRFjXy+xk9wdZRXc8iK6EFAABAylqmRltXR5wyaLHL7kXzo6vtrCKUaImpbV3Rce7A4pvdc1oHhR3NMfHgxmLhzu7ozK7Pt4dycExsrrlf95xobWitWdMCnj3V9SyyEloAAAAkLVuPYklMW3ZKtGbfClLUKcvOiiWzW4o25Vazl8S8mFVZrLNcTfMnxbzzq98u0hKnz5sU8/unj5wSC5dlYzM2pDFmLJ4XbUuLxT+b5sekeefXrGkBz57a0KLU09PTVxwflTPPPDMuuOCCYg8AACAtJ598cpx99tnF3jMn+9CfTa9g6/Nvsf25bvnq2HO35xV7mxlaAAAApExosX3zb7H9yUKLvf7qGQgtAAAAnot8UE6Hf4vtTxZa7F0TWljTAgAAAEhG7ZoWQgsAAAAgGaWaP0ILAAAAIBlGWgAAAADJE1oAAAAAyTDSAgAAAEhSqaaEFgAAAEAySqXSQPX09PQVxwEAANiIhoaGYosUlD/TFltsD65bvjr222NcsRdCCwAAACANeWix5zMUWkgYtywJIgAAANuzLLTYf69KaFHK/mxuaOGD9JbhvQYAAGB7l4UW4/faudizECcAAACQEN8eAgAAAKSpJrUQWgAAAADJqMkshBYAAABAOkqlShlpAQAAACSmklhkf4QWAAAAQDLyyCIbbVF+FVoAAAAA6cjSiuJVaAEAAAAkIx9pUZTQAgAAAEiS0AIAAABIRvXbQ7JKKrTontMaDQ0N0d5ZHBhOZ3u5bXtssOmw5zujvfychqEetLH7AgAAAFtEQqFFdyya35VvzV24hSKDudNHFpAAAAAAW1w6oUX3opjf1Rbz5s2M5rkLt8hIh+bm5pg73agKAAAASEd1Gc5SOqFF96L50dU2NVpajolpzXNj1pzu4kyhuzPaWxvy6SMNDa3RvnBpcaKwsfNDmHTW4pjXNjemDzfconzfOa2t0draHu3tldfOrGuDp5F0z4nWuqktlSkoRnIAAADAyPX19fVXIqFFZ5zb0RVtU1vK241xzLTm6Jq/KAZii85ob5oeS6ctiZ6ennKdH1OjMpWkYmPnN6xl9rxomzs9WgeHJLnKfZedtTgWL54ds2eXX8+KmN7UHp0tU6Mt5kZ1JkseupRfl95e3KdzYflsW+Q/EgAAADAia3r7+iuN0GLQB/zGY6ZFc1dHnFsdpVCcP2tGY3GgMVqmthXbZRs7P6yWmD2vLbo6Ton1couhgoeW02NmcxZWtET2iEpIUVmPo62tfJ8ibOm+fWlENnIkvwgAAAAYiZ6Va/oridCic+Hc8t9zY3o+taNcTR35qIXqgpx5ANA8MQ7O99a3sfMb1TI75rV1Rccpc2pGdxT3re1XXk3RUe5cFlZkwUgeUhTrcUydPTXauubHou5KiNE8cZN7BAAAAM9JTzy1Np5YVakEQovOyDKLtnnZtI6amteWpRblsxGNh0yK6FoWd1QuWM/Gzo9EPk2kqyNOmTWwFkZ+32iLebX9KmpxNqojmyJSfu6i6noc5T9T27pi/qJFsayrOaYdUx35AQAAAIzWVg8tuufMWn8KRqZYMyJfkLN2O5MtujkrG51R2Nj5ESmmiXTVrIXRf9/O/hEY3Z3ZgputxVSSg2Ni89zo6F+PI7skm2rSEXObp4XMAgAAADbdVg4timkUM08fYu2HypoRlTUiWmL2kpkxaX5TZYrGKQtj4rTaNSs2dn6E8mkixXYuu++8mLZsVjQV00OaZs2PSfPOj8ryGZVFQyOao38mSB50lI9MO6Z8FgAAANhUpZ6enr5ie9SyD/HZVAmefd5rAAAAtnfXLV8dpWwj/yuB6SEAAAAAQxFaAAAAAEkSWgAAAABJEloAAAAASRJaAAAAAEkSWgAAAABJEloAAAAASRJaAAAAAEkSWgAAAABJEloAAAAASSr19PT0Fduj1tDQUGyxJZT/rYotAAAA2P5ct3x1lLKN/K/NDC0AAAAAnimDQwvTQwAAAIAkCS0AAACAJAktAAAAgCQJLQAAAIAkCS0AAACAJAktAAAAgCRt1leeNjQ0FFswvPLvWbEFAAAAQxv8laebHVr4MMrG+D0BAABgJAaHFqaHAAAAAEkSWgAAAABJEloAAAAASRJaAAAAAEkSWgAAAABJEloAAAAASRJaAAAAAEkSWgAAAABJEloAAAAASRJaAAAAAEkSWgAAAABJEloAAAAASRJaAAAAAEkSWgAAAABJEloAAAAASRJaAAAAAEkSWgAAAABJEloAAAAASRJaRGe0NzREQ121Rmv7nOjsLpqMSHaf1pgzqmsAAACADRFa5Jpj5pKe6Omp1vlx1sT5Mb3p2QohBBwAAACwMUKLITVGy4zFsWRmRMcpc0K2AAAAAFue0GIYjcdMi+auZXFHsR/RHXPaW6O1tT3aW7MpJJ3DBBobals+3jo95kZXdPSP5BjNfQEAAOC5QWgxnMZDYlIsjduLBKGzvSnmTzw/Fi+eHbMXL47zJ86KpvbOyslBNty2MWYsnhdt+ZSUxTGjcXT3BQAAgOcKocWIdcbCuc0x7ZjGYr8YiTF3YfnMYM9WWwAAAHjuEFoMp/v2WBqT4pAsT8i3sykdNd8y0tRRPjIwEqPfs9UWAAAAnkOEFsPoXjQ/utqmRku2k08VGfwtI1lVpnjUebbaAgAAwHOI0GJI3dE5pzWaOiJmnp5HFmUtMbWtKzrOHVgks7vcpqF1qG8XebbaAgAAwHOH0CI3aHpGwykxa9m0mFcslFnVMntJzItZ0VS0a5o/KeadPyOGGhAxfNuDY2IWVJSfma23OZr7AgAAwHNFqaenp6/YHrXsA3Y2lQGG4/cEAACAkbhu+eooZRv5X0ZaAAAAAIkSWgAAAABJEloAAAAASRJaAAAAAEkSWgAAAABJEloAAAAASRJaAAAAAEkSWgAAAABJEloAAAAASRJaAAAAAEkSWgAAAABJEloAAAAASRJaAAAAAEkSWgAAAABJEloAAAAASRJaAAAAAEkSWgAAAABJEloAAAAASSr19PT0Fduj1tDQUGzB8Mq/Z8UWAAAADO265aujlG3kf21maAEAAADwTBkcWpgeAgAAACRJaAEAAAAkSWgBAAAAJEloAQAAACRJaAEAAAAkSWgBAAAAJEloAQAAACSpNO/Sy/qKbQAAAICt5vmHvCZK2Ub+VxZazJsntAAAAAC2rjHj1gstTA8BAAAAkiS0AAAAAJIktAAAAACSJLQAAAAAkiS0AAAAAJIktAAAAACSJLQAAAAAkiS0AAAAAJIktAAAAACSJLQAAAAAkiS0AAAAAJIktAAAAACSJLQAAAAAkiS0AAAAAJIktAAAAACSJLQAAAAAkiS0AAAAAJIktAAAAACSJLQAAAAAkiS0AAAAAJIktAAAAACSJLQAAAAAkiS0AAAAAJIktAAAAACSJLQAAAAAkiS0AAAAAJIktAAAAACSJLQAAAAAkiS0AAAAAJIktAAAAACSJLQAAAAAkiS0AAAAAJIktAAAAACSJLQAAAAAkiS0AAAAAJIktAAAAACSJLQAAAAAkiS0AAAAAJIktAAAAACSJLQAAAAAkiS0AAAAAJIktAAAAACSJLQAAAAAkiS0AAAAAJIktAAAAACSJLQAAAAAkiS0AAAAAJIktAAAAACSJLQAAAAAkiS0AAAAAJIktAAAAACSJLQAAAAAkiS0AAAAAJIktAAAAACSJLQAAAAAkiS0AAAAAJIktAAAAACSJLQAAAAAkiS0AAAAAJIktAAAAACSJLQAAAAAkiS0AAAAAJIktAAAAACSJLQAAAAAkiS0AAAAAJIktAAAAACSJLQAAAAAkiS0AAAAAJIktAAAAACSJLQAAAAAkiS0AAAAAJIktAAAAACSJLQAAAAAkiS0AAAAAJIktAAAAACSJLQAAAAAkiS0AAAAAJIktAAAAACSJLQAAAAAkiS0AAAAAJIktAAAAACSJLQAAAAAkiS0AAAAAJIktAAAAACSJLQAAAAAkiS0AAAAAJIktAAAAACSJLQAAAAAkiS0AAAAAJIktAAAAACSJLQAAAAAkiS0AAAAAJIktAAAAACSJLQAAAAAkiS0AAAAAJIktAAAAACSJLQAAAAAkiS0AAAAAJIktAAAAACSJLQAAAAAkiS0AAAAAJIktAAAAACSJLQAAAAAkiS0AAAAAJIktAAAAACSJLQAAAAAkiS0AAAAAJIktAAAAACSJLQAAAAAkiS0AAAAAJIktAAAAACSJLQAAAAAkiS0AAAAAJIktAAAAACSJLQAAAAAkiS0AAAAAJIktAAAAACSJLQAAAAAkiS0AAAAAJIktAAAAACSJLQAAAAAkiS0AAAAAJIktAAAAACSJLQAAAAAkiS0AAAAAJIktAAAAACSJLQAAAAAkiS0AAAAAJIktAAAAACSJLQAAAAAkiS0AAAAAJIktAAAAACSJLQAAAAAkiS0AAAAAJIktAAAAACSJLQAAAAAkiS0AAAAAJIktAAAAACSJLQAAAAAkiS0AAAAAJIktAAAAACSJLQAAAAAkiS0AAAAAJIktAAAAACSJLQAAAAAkiS0AAAAAJIktAAAAACSJLQAAAAAkiS0AAAAAJIktAAAAACSJLQAAAAAkiS0AAAAAJIktAAAAACSJLQAAAAAkiS0AAAAAJIktAAAAACSJLQAAAAAkiS0AAAAAJIktAAAAACSJLQAAAAAkiS0AAAAAJIktAAAAACSJLQAAAAAkiS0AAAAAJIktAAAAACSJLQAAAAAkiS0AAAAAJIktAAAAACSJLQAAAAAkiS0AAAAAJIktAAAAACSJLQAAAAAkiS0AAAAAJIktAAAAACSJLQAAAAAkiS0AAAAAJIktAAAAACSJLQAAAAAkiS0AAAAAJIktAAAAACSJLQAAAAAkiS0AAAAAJIktAAAAACSJLQAAAAAkiS0AAAAAJIktAAAAACSJLQAAAAAkiS0AAAAAJIktAAAAACSJLQAAAAAkiS0AAAAAJIktAAAAACSJLQAAAAAkiS0AAAAAJIktAAAAACSJLQAAAAAkiS0AAAAAJIktAAAAACSJLQAAAAAkiS0AAAAAJIktAAAAACSJLQAAAAAkiS0AAAAAJIktAAAAACSJLQAAAAAkiS0AAAAAJIktAAAAACSJLQAAAAAkiS0AAAAAJIktAAAAACSJLQAAAAAkiS0AAAAAJIktAAAAACSJLQAAAAAkiS0AAAAAJIktAAAAACSJLQAAAAAkiS0AAAAAJIktAAAAACSJLQAAAAAkiS0AAAAAJIktAAAAACSJLQAAAAAkiS0AAAAAJIktAAAAACSJLQAAAAAkiS0AAAAAJIktAAAAACSJLQAAAAAkiS0AAAAAJIktAAAAACSJLQAAAAAkiS0AAAAAJIktAAAAACSJLQAAAAAkiS0AAAAAJIktAAAAACSJLQAAAAAkiS0AAAAAJIktAAAAACSJLQAAAAAkiS0AAAAAJIktAAAAACSJLQAAAAAkiS0AAAAAJIktAAAAACSJLQAAAAAkiS0AAAAAJIktAAAAACSJLQAAAAAkiS0AAAAAJIktAAAAACSJLQAAAAAkiS0AAAAAJIktAAAAAASFPH/AVbWeCbqwB40AAAAAElFTkSuQmCC;" vertex="1" parent="1">
          <mxGeometry x="310" y="660" width="1069" height="460" as="geometry" />
        </mxCell>
        <mxCell id="FLnOvjkGC3l7UgWu9o7t-2" value="" style="rounded=0;whiteSpace=wrap;html=1;" vertex="1" parent="1">
          <mxGeometry x="310" y="80" width="1060" height="460" as="geometry" />
        </mxCell>
        <mxCell id="FLnOvjkGC3l7UgWu9o7t-3" value="" style="rounded=1;whiteSpace=wrap;html=1;" vertex="1" parent="1">
          <mxGeometry x="490" y="150" width="700" height="40" as="geometry" />
        </mxCell>
        <mxCell id="FLnOvjkGC3l7UgWu9o7t-4" value="&lt;b&gt;&lt;font style=&quot;font-size: 22px;&quot;&gt;Search&lt;/font&gt;&lt;/b&gt;" style="text;html=1;strokeColor=none;fillColor=none;align=center;verticalAlign=middle;whiteSpace=wrap;rounded=0;" vertex="1" parent="1">
          <mxGeometry x="390" y="155" width="90" height="30" as="geometry" />
        </mxCell>
        <mxCell id="FLnOvjkGC3l7UgWu9o7t-5" value="&lt;b&gt;&lt;font style=&quot;font-size: 24px;&quot;&gt;New&lt;/font&gt;&lt;/b&gt;" style="rounded=1;whiteSpace=wrap;html=1;" vertex="1" parent="1">
          <mxGeometry x="490" y="220" width="100" height="40" as="geometry" />
        </mxCell>
        <mxCell id="FLnOvjkGC3l7UgWu9o7t-6" value="&lt;b&gt;&lt;font style=&quot;font-size: 19px;&quot;&gt;Delete&amp;nbsp;&lt;/font&gt;&lt;/b&gt;" style="rounded=1;whiteSpace=wrap;html=1;" vertex="1" parent="1">
          <mxGeometry x="490" y="290" width="80" height="40" as="geometry" />
        </mxCell>
        <mxCell id="FLnOvjkGC3l7UgWu9o7t-9" value="" style="endArrow=none;html=1;rounded=0;exitX=-0.005;exitY=0.599;exitDx=0;exitDy=0;exitPerimeter=0;entryX=1.003;entryY=0.61;entryDx=0;entryDy=0;entryPerimeter=0;" edge="1" parent="1" source="FLnOvjkGC3l7UgWu9o7t-2" target="FLnOvjkGC3l7UgWu9o7t-2">
          <mxGeometry width="50" height="50" relative="1" as="geometry">
            <mxPoint x="860" y="580" as="sourcePoint" />
            <mxPoint x="910" y="530" as="targetPoint" />
            <Array as="points">
              <mxPoint x="840" y="361" />
            </Array>
          </mxGeometry>
        </mxCell>
        <mxCell id="FLnOvjkGC3l7UgWu9o7t-10" value="&lt;font style=&quot;font-size: 27px;&quot;&gt;Showing all records&lt;/font&gt;" style="text;html=1;strokeColor=none;fillColor=none;align=center;verticalAlign=middle;whiteSpace=wrap;rounded=0;" vertex="1" parent="1">
          <mxGeometry x="630" y="400" width="370" height="110" as="geometry" />
        </mxCell>
      </root>
    </mxGraphModel>
  </diagram>
</mxfile>
